Patient4_TMGait_0pt5_01_right_08_EMG.mot
version=1
nRows=23
nColumns=33
inDegrees=no
endheader
time	1LAddLong	2LGlutMax	3LGlutMed	4LIliopsoas	5LSemiMemb	6LBicFemLong	7LRecFem	8LVastMed	9LVastLat	10LGasMed	11LTibAnt	12lTibPost	13LPeroneusLong	14LSol	15LExtDigLong	16LFlexDigLong	17RAddLong	18RGlutMax	19RGlutMed	20RIliopsoas	21RSemiMemb	22RBicFemLong	23RRecFem	24RVastMed	25RVastLat	26RGasMed	27RTibAnt	28RTibPost	29RPeroneusLong	30RSol	31RExtDigLong	32RFlexDigLong
11.035	0.005188	-0.084686	0.001831	0.010071	0.14069	0.10605	-0.097504	-0.015717	-0.13641	0.022583	0.00351	0.007629	0.010376	0.011749	0.058746	-0.003052	0.004883	0.1831	-0.018005	0.028076	-0.030212	-0.069733	-0.061188	-0.070038	-0.12131	-0.015259	1.0677	-0.002899	-0.54581	-0.018311	-0.000305	-0.014191
11.036	-0.020752	-0.051727	-0.00946	0.000305	0.033264	0.15472	-0.071259	-0.005798	-0.10239	0.031281	0.014648	0.014038	0.008545	0.006409	0.047302	0.003815	-0.013275	0.054932	-0.065765	-0.015259	-0.026093	0.002747	0.027924	-0.10651	-0.13748	-0.01297	0.616	-0.000305	-0.61615	-0.054626	-0.002136	-0.021973
11.037	-0.041046	-0.063629	-0.010529	-0.013428	-0.020294	0.070953	-0.051575	0.005646	-0.063171	0.023346	0.008087	0.014191	0.00061	0.014496	0.028839	-0.006104	-0.00946	0.093842	-0.10407	-0.021973	-0.01709	-0.014343	0.028076	-0.12054	-0.13763	-0.007629	0.29297	-0.008545	-0.27374	-0.14923	-0.001068	-0.014038
11.038	-0.056152	-0.037842	-0.021362	-0.012054	-0.044098	-0.007019	-0.052185	0.014038	0.054474	0.018158	0.00473	0.019989	0.005341	0.023041	0.020905	0.004883	-0.007629	0.076447	-0.088501	-0.052338	-0.020905	-0.020905	0.019684	-0.052032	-0.076752	0.005341	-0.067596	-0.000153	0.51926	-0.18997	-0.000458	-0.009155
11.039	-0.055389	-0.038757	-0.045013	-0.004578	-0.006409	-0.064697	-0.01297	0.011749	0.20218	0.02182	-0.002289	0.008087	-0.002289	-0.031281	0.026398	-0.003204	-0.021362	0.059357	-0.21408	-0.00885	-0.010681	-0.027466	-0.1297	0.11978	0.089874	0	0.062256	-0.001984	0.7312	0.045776	0.000763	-0.010681
11.04	-0.040588	-0.017853	-0.044861	-0.009766	0.041809	-0.027466	0.019989	0.005341	0.21561	0.009918	-0.004272	0.016937	-0.018921	0.042877	0.017395	0.001678	-0.032196	-0.043488	-0.17242	0.063019	0.016632	-0.032196	-0.16449	0.22736	0.15396	0.000916	-0.3949	-0.002747	0.54459	0.23926	-0.002136	-0.01358
11.041	-0.038757	-0.022583	-0.0177	-0.004883	0.024414	0.007324	0.073395	0.00946	0.13397	0.02655	0.015717	0.015106	-0.016937	0.061798	-0.005341	-0.005188	-0.020142	-0.045929	-0.11429	0.092316	0.036926	-0.017548	-0.097198	0.12558	0.06958	0.007019	-1.4339	-0.002899	0.51331	0.19302	0	-0.007935
11.042	-0.035553	-0.035858	0.000153	-0.000458	0.025177	-0.043182	0.093079	-0.007477	0.028381	0.028076	0.003204	0.017242	-0.010529	0.001526	-0.023346	-0.000153	-0.021515	-0.14816	-0.22079	0.054321	0.020905	-0.01358	-0.24643	0.071411	0.061493	0.01297	-1.2282	-0.001526	0.47485	0.10986	-0.001068	-0.001831
11.043	-0.045929	-0.015717	-0.030975	-0.00473	0.064087	0.020294	0.021973	-0.003662	-0.12375	0.021057	0.024872	0.004578	0.010834	0.016479	-0.035248	-0.003662	-0.007935	-0.16281	-0.22308	-0.023346	0.001221	-0.022888	-0.16815	0.077515	0.10529	0.00946	-0.60928	-0.003052	0.61691	0.098877	-0.002136	-0.001984
11.044	-0.037994	-0.049591	-0.007782	-0.011597	-0.010223	-0.051422	0.010223	-0.002289	-0.05661	0.017853	0.008392	0.009918	0.044403	0.037384	-0.065765	-0.005035	-0.022888	-0.16281	-0.10635	-0.062103	-0.045776	-0.023804	-0.18143	0.11536	0.063324	0.006104	-0.2533	-0.00351	0.055237	0.13245	0.001526	-0.008087
11.045	-0.021515	-0.054169	-0.000763	0.000763	-0.080261	0.079651	0.032196	0.006714	0.002747	0.016632	0.00946	0.025787	0.024567	0.039673	-0.056152	0.005646	-0.018311	-0.094757	-0.029144	-0.045624	-0.057831	-0.024414	-0.18097	0.027313	0.0177	0.003052	0.006561	-0.007324	-0.54489	0.010376	-0.000153	-0.009155
11.046	-0.008545	0.015411	-0.007172	-0.009155	-0.060272	0.26077	0.033875	0.002594	0.054932	0.016937	0.026855	0.010223	0.00412	0.058594	0.020142	-0.005951	0.001221	-0.10239	-0.12344	-0.001526	-0.072937	-0.08728	-0.13519	0.005493	-0.014648	0.00473	0.15305	-0.003052	-0.50415	-0.02655	0.002441	-0.009766
11.047	0.000458	0.08316	-0.003357	0.006714	0.002289	0.44983	-0.085297	0.007172	0.2121	0.015564	0.012512	0.014801	0.006104	0.057373	0.054169	-0.009613	0.000153	-0.12589	-0.10544	-0.018616	-0.071106	-0.11307	-0.16495	-0.00351	-0.008392	0.002594	0.21439	-0.004272	-0.40817	0.13657	-0.000458	-0.002899
11.048	-0.011292	0.067902	0.007477	0.004425	0.05722	0.52917	-0.11169	0.008545	0.24124	0.019073	0.019531	0.012817	0	-0.001678	0.007935	-0.000916	-0.006256	-0.20569	-0.088654	-0.039673	-0.052185	-0.15137	-0.18387	-0.005798	0.003662	0.001373	-0.005188	-0.003204	-0.54153	0.14343	0.001526	-0.011444
11.049	-0.026703	0.095673	-0.006866	0.006714	-0.00824	0.37567	-0.090179	-0.002899	0.19012	0.039825	0.025482	0.0177	-0.011444	0.002594	0.004578	-0.004578	-0.005188	-0.22995	-0.1268	-0.030212	-0.080566	-0.16251	-0.1857	-0.009003	0.009308	-0.004272	-0.061951	-0.000458	-1.3132	0.080566	0.002899	-0.021973
11.05	-0.046997	0.092316	0.014954	-0.00412	-0.15808	0.23697	-0.050812	-0.006561	0.032654	0.026855	0.003204	0.011902	-0.008698	-0.016632	0.00473	-0.008392	0.014191	-0.17761	-0.15121	0.023346	-0.078278	-0.14954	-0.18799	-0.045319	0.011139	-0.004883	0.15549	-0.003967	-1.1494	0.050201	0	-0.014191
11.051	-0.035553	0.1474	0.019226	0	-0.16602	0.26916	-0.076447	-0.013428	-0.12619	0.024719	-0.001373	0.013428	-0.009766	0.023804	0.002594	0.002136	0.014648	-0.14053	-0.19012	0.027924	-0.057526	-0.11536	-0.18524	-0.021362	0.010834	-0.002899	0.10117	-0.003052	-0.45898	0.003204	0.000916	-0.01236
11.052	-0.009918	0.14847	0.005035	0.020905	-0.11887	0.31342	-0.069275	-0.001221	-0.23773	0.025482	0.011444	0.018463	-0.04364	-0.030823	0.020752	-0.002899	0.00824	-0.14862	-0.25223	0.002594	-0.067139	0.002747	-0.21408	0.006714	0.018921	-0.007477	-0.026245	-0.006104	0.29129	-0.026703	-0.001373	-0.021362
11.053	0.03067	0.15213	-0.01236	0.008698	-0.082245	0.1358	-0.09491	-0.016022	-0.28366	0.004578	-0.001526	0.009003	-0.014343	0.007935	0.088043	0.003357	-0.012817	-0.13001	-0.15182	0.046234	-0.038757	0.10727	-0.18768	0.021362	0.009003	-0.008698	-0.19424	-0.002899	2.1207	-0.016327	-0.000458	-0.02182
11.054	0.052948	0.19379	-0.049591	0.007629	-0.010681	-0.12878	-0.019684	-0.023193	-0.21027	0.002747	-0.007629	0.016327	0.039673	-0.007629	0.098114	0.003204	0.021362	-0.17441	-0.23086	0.12131	-0.042419	0.056915	-0.19226	0.016785	-0.003815	0.006714	-0.86929	-0.002899	1.4491	-0.066376	-0.001678	-0.015259
11.055	0.045013	0.25513	-0.062408	0.017242	0.054626	-0.03952	0.044708	-0.007629	-0.16296	0.017853	0.009003	0.013885	-0.000763	0.006104	0.090179	-0.007324	0.035858	-0.18585	-0.1564	0.14358	-0.044708	-0.079346	-0.20111	-0.012817	0.006409	0.009766	-1.1108	-0.00412	0.96939	-0.068817	0.003204	-0.009155
11.056	0.045471	0.30197	-0.089111	0.015259	0.10651	0.18173	0.06485	-0.013123	-0.16235	0.031433	0.012512	0.019531	0.044403	0.009613	0.075073	0.007629	0.039063	-0.17944	-0.21698	0.15396	-0.055389	-0.15533	-0.22201	0.035858	-0.018463	0.012817	-0.46524	-0.004883	0.59021	-0.038757	-0.001678	-0.015411
11.057	0.037689	0.23392	-0.12238	0.020294	0.086517	0.32059	0.033112	-0.021515	-0.15305	0.009613	-0.016937	-0.002594	0.10513	-0.004425	0.040588	-0.001678	0.012054	-0.1268	-0.32013	0.057068	-0.055695	-0.026398	-0.19257	0.050354	0.015717	0.010223	0.20538	-0.001831	-0.22324	-0.069885	-0.001068	-0.015259
